<svg xmlns="http://www.w3.org/2000/svg"> 

<symbol id="arrow-right" viewBox="0 0 18 10">
    <path fill-rule="evenodd" clip-rule="evenodd" d="M12.5 0.669876L18 5L12.5 9.33013V5.75L0 5.75L0 4.25L12.5 4.25V0.669876Z"/>
</symbol>

<symbol id="arrow-right-up" viewBox="0 0 20 20">
    <path d="M5 15L15 5" stroke-width="1.3" stroke-linecap="round" stroke-linejoin="round"/>
    <path d="M8.33325 5H14.9999V11.6667" stroke-width="1.3" stroke-linecap="round" stroke-linejoin="round"/>
</symbol>

<symbol id="camera" viewBox="0 0 16 16">
    <path d="M10.5 8.5C10.5 9.16304 10.2366 9.79893 9.76777 10.2678C9.29893 10.7366 8.66304 11 8 11C7.33696 11 6.70107 10.7366 6.23223 10.2678C5.76339 9.79893 5.5 9.16304 5.5 8.5C5.5 7.83696 5.76339 7.20107 6.23223 6.73223C6.70107 6.26339 7.33696 6 8 6C8.66304 6 9.29893 6.26339 9.76777 6.73223C10.2366 7.20107 10.5 7.83696 10.5 8.5Z" fill-opacity="0.4"/>
    <path d="M2 4C1.46957 4 0.960859 4.21071 0.585786 4.58579C0.210714 4.96086 0 5.46957 0 6L0 12C0 12.5304 0.210714 13.0391 0.585786 13.4142C0.960859 13.7893 1.46957 14 2 14H14C14.5304 14 15.0391 13.7893 15.4142 13.4142C15.7893 13.0391 16 12.5304 16 12V6C16 5.46957 15.7893 4.96086 15.4142 4.58579C15.0391 4.21071 14.5304 4 14 4H12.828C12.2976 3.99989 11.789 3.7891 11.414 3.414L10.586 2.586C10.211 2.2109 9.70239 2.00011 9.172 2H6.828C6.29761 2.00011 5.78899 2.2109 5.414 2.586L4.586 3.414C4.21101 3.7891 3.70239 3.99989 3.172 4H2ZM2.5 6C2.36739 6 2.24021 5.94732 2.14645 5.85355C2.05268 5.75979 2 5.63261 2 5.5C2 5.36739 2.05268 5.24021 2.14645 5.14645C2.24021 5.05268 2.36739 5 2.5 5C2.63261 5 2.75979 5.05268 2.85355 5.14645C2.94732 5.24021 3 5.36739 3 5.5C3 5.63261 2.94732 5.75979 2.85355 5.85355C2.75979 5.94732 2.63261 6 2.5 6ZM11.5 8.5C11.5 9.42826 11.1313 10.3185 10.4749 10.9749C9.8185 11.6313 8.92826 12 8 12C7.07174 12 6.1815 11.6313 5.52513 10.9749C4.86875 10.3185 4.5 9.42826 4.5 8.5C4.5 7.57174 4.86875 6.6815 5.52513 6.02513C6.1815 5.36875 7.07174 5 8 5C8.92826 5 9.8185 5.36875 10.4749 6.02513C11.1313 6.6815 11.5 7.57174 11.5 8.5Z" fill-opacity="0.4"/>
</symbol>

<symbol id="cross" viewBox="0 0 32 32">
    <path d="M24 8L8 24" stroke-width="3" stroke-linecap="round" stroke-linejoin="round"/>
    <path d="M8 8L24 24" stroke-width="3" stroke-linecap="round" stroke-linejoin="round"/>
</symbol>

<symbol id="star" viewBox="0 0 20 20">
    <path d="M10.0001 1.66667L12.5751 6.88334L18.3334 7.72501L14.1667 11.7833L15.1501 17.5167L10.0001 14.8083L4.85008 17.5167L5.83341 11.7833L1.66675 7.72501L7.42508 6.88334L10.0001 1.66667Z" stroke-width="1.5" stroke-linecap="round" stroke-linejoin="round"/>
</symbol>

<symbol id="nav_button" viewBox="0 0 32 22">
    <line x1="5.86963" y1="3.66669" x2="31.0001" y2="3.66669" stroke-width="2" stroke-linecap="round"/>
    <line x1="5.86963" y1="17" x2="31.0001" y2="17" stroke-width="2" stroke-linecap="round"/>
    <line x1="13.5217" y1="10.3333" x2="31" y2="10.3333" stroke-width="2" stroke-linecap="round"/>
</symbol>
    
<symbol id="logo" viewBox="0 0 127 20">
    <path d="M10.334 11.0753H3.33278V17.6928H0V2H11.3411V4.74151H3.33278V8.31019H10.334V11.0753Z"/>
    <path d="M17.0901 15.4239C18.9842 15.4239 19.9433 14.2422 19.9433 11.8789C19.9433 9.51551 18.9842 8.35746 17.0901 8.35746C15.1959 8.35746 14.2368 9.51551 14.2368 11.8789C14.2368 14.2422 15.1959 15.4239 17.0901 15.4239ZM17.0901 18C13.2778 18 11.0239 15.4948 11.0239 11.8789C11.0239 8.19202 13.3497 5.75776 17.0901 5.75776C20.7825 5.75776 23.0843 8.16839 23.0843 11.8789C23.0843 15.5657 20.7585 18 17.0901 18Z"/>
    <path d="M31.6935 13.486H34.8345C34.4988 16.1802 32.2689 18 29.4157 18C26.2028 18 23.9969 15.8966 23.9969 11.7371C23.9969 7.57755 26.2028 5.75776 29.5116 5.75776C32.5806 5.75776 34.6666 7.48301 34.8584 10.2245H31.7175C31.5496 9.0192 30.6625 8.31019 29.4876 8.31019C28.1689 8.31019 27.0899 9.13737 27.0899 11.6662C27.0899 14.195 28.1689 15.4239 29.3917 15.4239C30.6145 15.4239 31.5736 14.7386 31.6935 13.486Z"/>
    <path d="M46.378 17.6928H43.4288V16.062C42.6136 17.3855 41.3908 18 39.7604 18C37.4107 18 35.7562 16.2747 35.7562 13.7223V6.06499H38.8732V13.2496C38.8732 14.7149 39.5446 15.4239 40.8633 15.4239C42.4458 15.4239 43.285 14.3131 43.285 12.777V6.06499H46.378V17.6928Z"/>
    <path d="M57.8389 9.58641H54.8418C54.674 8.45199 54.0506 8.05022 52.636 8.05022C51.4611 8.05022 50.7897 8.33383 50.7897 9.0192C50.7897 9.70458 51.4371 9.98818 52.7079 10.3427C54.0506 10.7208 55.3214 10.9808 56.2325 11.3353C57.4793 11.8316 58.1746 12.6352 58.1746 14.1477C58.1746 16.5583 56.3764 18 53.0196 18C49.3991 18 47.385 16.322 47.3371 13.9586H50.55C50.55 15.0458 51.4851 15.6839 52.9956 15.6839C54.0986 15.6839 55.0816 15.353 55.0816 14.4786C55.0816 13.6514 54.1945 13.3914 53.1874 13.1551C51.1973 12.6824 50.0944 12.3516 49.2552 11.8316C48.1523 11.1462 47.7687 10.2482 47.7687 9.20827C47.7687 7.24668 49.1353 5.75776 52.7319 5.75776C56.1366 5.75776 57.6711 7.08124 57.8389 9.58641Z"/>
    <path d="M62.3149 17.6928H58.9822V14.5022H62.3149V17.6928Z"/>
    <path d="M73.7884 11.0753H66.7872V17.6928H63.4544V2H74.7954V4.74151H66.7872V8.31019H73.7884V11.0753Z"/>
    <path d="M78.2805 17.6928H75.1635V6.06499H78.0887V7.45938C79.1197 5.89956 80.3186 5.75776 81.5893 5.75776H81.9969V8.90103C81.7092 8.85377 81.4215 8.83013 81.1338 8.83013C79.2156 8.83013 78.2805 9.77548 78.2805 11.6425V17.6928Z"/>
    <path d="M89.4268 13.2733L89.4508 11.997C89.1391 12.3043 88.5876 12.4697 87.4367 12.6824C85.6624 13.0133 85.087 13.5096 85.087 14.5022C85.087 15.3767 85.6144 15.8021 86.5975 15.8021C88.2039 15.8021 89.4028 14.644 89.4268 13.2733ZM92.5677 17.6928H89.6665C89.5706 17.4092 89.4987 17.0074 89.4747 16.6529C88.7314 17.4564 87.4846 18 85.9022 18C83.2168 18 81.97 16.7001 81.97 14.8095C81.97 11.4535 84.2478 11.0753 87.3887 10.6499C88.9472 10.4372 89.3788 10.13 89.3788 9.32644C89.3788 8.57016 88.6116 8.12112 87.3887 8.12112C85.9741 8.12112 85.3987 8.8065 85.2548 9.84638H82.3536C82.4016 7.43575 83.7443 5.75776 87.5326 5.75776C91.273 5.75776 92.5677 7.41211 92.5677 10.3427V17.6928Z"/>
    <path d="M110.822 17.6928H107.777V10.6499C107.777 9.25554 107.034 8.26292 105.931 8.26292C104.78 8.26292 103.941 9.32644 103.941 10.7445V17.6928H100.824V10.6972C100.824 8.83013 100.32 8.35746 98.9535 8.35746C97.7067 8.35746 97.0593 9.11374 97.0593 10.6263V17.6928H93.9423V6.06499H96.8675V7.76662C97.6587 6.23043 98.7616 5.75776 100.32 5.75776C101.927 5.75776 102.694 6.25406 103.605 7.60118C104.252 6.32496 105.307 5.75776 106.794 5.75776C109.168 5.75776 110.822 7.45938 110.822 9.63368V17.6928Z"/>
    <path d="M114.968 10.7445H119.787C119.739 9.0192 118.588 8.19202 117.365 8.19202C116.119 8.19202 115.088 9.13737 114.968 10.7445ZM123 12.6824H114.872C114.968 14.4313 115.975 15.5657 117.509 15.5657C118.516 15.5657 119.403 15.0694 119.619 14.2659H122.832C122.113 16.6529 120.171 18 117.653 18C113.721 18 111.755 15.873 111.755 11.6662C111.755 8.07386 113.841 5.75776 117.461 5.75776C121.082 5.75776 123 8.07385 123 12.6824Z"/>
</symbol>

<symbol id="logo-tablet-desktop" viewBox="0 0 124 17">
  <path d="M10.344 9.216H3.336V15.936H0V0H11.352V2.784H3.336V6.408H10.344V9.216Z"/>
  <path d="M17.1066 13.632C19.0026 13.632 19.9626 12.432 19.9626 10.032C19.9626 7.632 19.0026 6.456 17.1066 6.456C15.2106 6.456 14.2506 7.632 14.2506 10.032C14.2506 12.432 15.2106 13.632 17.1066 13.632ZM17.1066 16.248C13.2906 16.248 11.0346 13.704 11.0346 10.032C11.0346 6.288 13.3626 3.816 17.1066 3.816C20.8026 3.816 23.1066 6.264 23.1066 10.032C23.1066 13.776 20.7786 16.248 17.1066 16.248Z"/>
  <path d="M31.7241 11.664H34.8681C34.5321 14.4 32.3001 16.248 29.4441 16.248C26.2281 16.248 24.0201 14.112 24.0201 9.888C24.0201 5.664 26.2281 3.816 29.5401 3.816C32.6121 3.816 34.7001 5.568 34.8921 8.352H31.7481C31.5801 7.128 30.6921 6.408 29.5161 6.408C28.1961 6.408 27.1161 7.248 27.1161 9.816C27.1161 12.384 28.1961 13.632 29.4201 13.632C30.6441 13.632 31.6041 12.936 31.7241 11.664Z"/>
  <path d="M46.4228 15.936H43.4707V14.28C42.6547 15.624 41.4308 16.248 39.7988 16.248C37.4468 16.248 35.7907 14.496 35.7907 11.904V4.128H38.9108V11.424C38.9108 12.912 39.5827 13.632 40.9027 13.632C42.4867 13.632 43.3268 12.504 43.3268 10.944V4.128H46.4228V15.936Z"/>
  <path d="M57.8948 7.704H54.8948C54.7268 6.552 54.1028 6.144 52.6868 6.144C51.5108 6.144 50.8388 6.432 50.8388 7.128C50.8388 7.824 51.4868 8.112 52.7588 8.472C54.1028 8.856 55.3748 9.12 56.2868 9.48C57.5348 9.984 58.2308 10.8 58.2308 12.336C58.2308 14.784 56.4307 16.248 53.0707 16.248C49.4467 16.248 47.4308 14.544 47.3828 12.144H50.5987C50.5987 13.248 51.5348 13.896 53.0468 13.896C54.1508 13.896 55.1348 13.56 55.1348 12.672C55.1348 11.832 54.2467 11.568 53.2387 11.328C51.2467 10.848 50.1427 10.512 49.3027 9.984C48.1987 9.288 47.8148 8.376 47.8148 7.32C47.8148 5.328 49.1828 3.816 52.7828 3.816C56.1908 3.816 57.7268 5.16 57.8948 7.704Z"/>
  <path d="M62.3751 15.936H59.0391V12.696H62.3751V15.936Z"/>
  <path d="M73.8596 9.216H66.8516V15.936H63.5156V0H74.8676V2.784H66.8516V6.408H73.8596V9.216Z"/>
  <path d="M78.3561 15.936H75.2361V4.128H78.1641V5.544C79.1961 3.96 80.3961 3.816 81.6681 3.816H82.0761V7.008C81.7881 6.96 81.5001 6.936 81.2121 6.936C79.2921 6.936 78.3561 7.896 78.3561 9.792V15.936Z"/>
  <path d="M89.5131 11.448L89.5371 10.152C89.2251 10.464 88.6731 10.632 87.5211 10.848C85.7451 11.184 85.1691 11.688 85.1691 12.696C85.1691 13.584 85.6971 14.016 86.6811 14.016C88.2891 14.016 89.4891 12.84 89.5131 11.448ZM92.6571 15.936H89.7531C89.6571 15.648 89.5851 15.24 89.5611 14.88C88.8171 15.696 87.5691 16.248 85.9851 16.248C83.2971 16.248 82.0491 14.928 82.0491 13.008C82.0491 9.6 84.3291 9.216 87.4731 8.784C89.0331 8.568 89.4651 8.256 89.4651 7.44C89.4651 6.672 88.6971 6.216 87.4731 6.216C86.0571 6.216 85.4811 6.912 85.3371 7.968H82.4331C82.4811 5.52 83.8251 3.816 87.6171 3.816C91.3611 3.816 92.6571 5.496 92.6571 8.472V15.936Z"/>
  <path d="M110.929 15.936H107.881V8.784C107.881 7.368 107.137 6.36 106.033 6.36C104.881 6.36 104.041 7.44 104.041 8.88V15.936H100.921V8.832C100.921 6.936 100.417 6.456 99.0489 6.456C97.8009 6.456 97.1529 7.224 97.1529 8.76V15.936H94.0329V4.128H96.9609V5.856C97.7529 4.296 98.8569 3.816 100.417 3.816C102.025 3.816 102.793 4.32 103.705 5.688C104.353 4.392 105.409 3.816 106.897 3.816C109.273 3.816 110.929 5.544 110.929 7.752V15.936Z"/>
  <path d="M115.079 8.88H119.903C119.855 7.128 118.703 6.288 117.479 6.288C116.231 6.288 115.199 7.248 115.079 8.88ZM123.119 10.848H114.983C115.079 12.624 116.087 13.776 117.623 13.776C118.631 13.776 119.519 13.272 119.735 12.456H122.951C122.231 14.88 120.287 16.248 117.767 16.248C113.831 16.248 111.863 14.088 111.863 9.816C111.863 6.168 113.951 3.816 117.575 3.816C121.199 3.816 123.119 6.168 123.119 10.848Z"/>
</symbol>




</svg>